<?xml version="1.0" standalone="no"?>
<!DOCTYPE svg PUBLIC "-//W3C//DTD SVG 20010904//EN"
 "http://www.w3.org/TR/2001/REC-SVG-20010904/DTD/svg10.dtd">
<svg version="1.0" xmlns="http://www.w3.org/2000/svg"
 width="903.000000pt" height="758.000000pt" viewBox="0 0 903.000000 758.000000"
 preserveAspectRatio="xMidYMid meet">

<g transform="translate(0.000000,758.000000) scale(0.100000,-0.100000)"
fill="#000000" stroke="none">
<path d="M2170 7573 c-250 -15 -491 -62 -639 -126 -238 -103 -433 -297 -532
-528 -101 -232 -124 -439 -139 -1244 -12 -637 -27 -763 -109 -963 -66 -158
-178 -288 -304 -350 -37 -18 -125 -48 -196 -66 -151 -38 -191 -62 -227 -140
-23 -50 -24 -55 -24 -361 0 -188 4 -325 11 -348 13 -49 67 -109 116 -130 21
-9 76 -23 121 -32 46 -9 108 -25 138 -36 189 -71 339 -263 413 -530 44 -157
51 -245 61 -749 14 -716 33 -969 85 -1167 66 -251 193 -435 388 -561 155 -100
383 -182 592 -213 134 -20 475 -38 475 -25 0 20 -47 85 -74 103 -82 54 -192
152 -249 224 -209 261 -287 600 -243 1049 55 558 46 1088 -25 1464 -75 399
-276 708 -591 905 -32 20 -58 38 -58 41 0 3 31 25 68 50 92 62 227 176 286
241 141 155 245 387 301 663 29 146 41 271 57 596 13 269 3 524 -29 775 -22
175 -21 430 1 560 22 128 86 319 138 415 78 145 192 280 313 371 30 22 56 48
59 57 2 10 7 27 11 40 6 21 5 22 -67 20 -40 -1 -98 -3 -128 -5z"/>
<path d="M6661 7564 c2 -43 17 -64 75 -108 120 -90 251 -251 327 -401 124
-248 162 -558 116 -950 -40 -334 -31 -980 16 -1280 33 -209 107 -426 198 -581
65 -112 238 -288 379 -387 l98 -69 -90 -59 c-185 -121 -342 -299 -435 -494
-90 -187 -130 -339 -162 -607 -22 -185 -25 -939 -5 -1118 34 -299 33 -508 -3
-686 -59 -289 -204 -519 -430 -685 -50 -36 -89 -73 -103 -99 l-23 -40 98 0
c236 0 474 34 644 90 465 154 684 410 753 883 28 189 37 350 46 877 11 616 18
704 77 900 47 161 126 295 228 388 93 85 174 120 377 161 73 16 129 57 159
118 23 47 24 56 27 341 4 345 -1 384 -59 447 -44 48 -81 65 -199 93 -119 28
-192 57 -263 106 -156 107 -277 345 -312 611 -20 160 -35 501 -35 818 0 817
-84 1148 -355 1406 -234 222 -498 310 -1012 337 -126 6 -133 6 -132 -12z"/>
<path d="M4755 6677 c-313 -118 -579 -218 -590 -224 -11 -6 -32 -24 -47 -40
-57 -60 -57 -57 -80 -856 -20 -682 -20 -740 -5 -771 19 -42 57 -53 113 -33 21
7 287 105 589 217 534 199 551 206 596 250 32 32 49 59 57 90 13 51 58 1476
48 1516 -10 38 -42 64 -78 64 -18 0 -289 -96 -603 -213z"/>
<path d="M4722 3765 c-360 -156 -660 -289 -667 -295 -44 -36 -78 -175 -95
-380 -21 -260 -160 -2506 -160 -2583 0 -70 3 -80 26 -104 20 -20 32 -24 59
-20 19 3 199 76 400 163 405 174 441 195 489 297 16 35 126 507 335 1432 170
759 315 1409 320 1445 14 83 14 224 1 272 -9 31 -36 60 -52 57 -2 0 -297 -128
-656 -284z"/>
</g>
</svg>
